<mxfile host="app.diagrams.net" agent="Mozilla/5.0 (Windows NT 10.0; Win64; x64) AppleWebKit/537.36 (KHTML, like Gecko) Chrome/137.0.0.0 Safari/537.36 Edg/137.0.0.0" version="27.1.4">
  <diagram id="C5RBs43oDa-KdzZeNtuy" name="Page-1">
    <mxGraphModel dx="4160" dy="1622" grid="1" gridSize="10" guides="1" tooltips="1" connect="1" arrows="1" fold="1" page="1" pageScale="1" pageWidth="827" pageHeight="1169" math="0" shadow="0">
      <root>
        <mxCell id="WIyWlLk6GJQsqaUBKTNV-0" />
        <mxCell id="WIyWlLk6GJQsqaUBKTNV-1" parent="WIyWlLk6GJQsqaUBKTNV-0" />
        <mxCell id="knblfGrgIA1s73M3ITM0-8" value="" style="edgeStyle=orthogonalEdgeStyle;rounded=0;orthogonalLoop=1;jettySize=auto;html=1;" parent="WIyWlLk6GJQsqaUBKTNV-1" source="knblfGrgIA1s73M3ITM0-0" target="knblfGrgIA1s73M3ITM0-2" edge="1">
          <mxGeometry relative="1" as="geometry" />
        </mxCell>
        <mxCell id="knblfGrgIA1s73M3ITM0-0" value="&lt;font style=&quot;font-size: 19px;&quot;&gt;Start&lt;/font&gt;" style="shape=hexagon;perimeter=hexagonPerimeter2;whiteSpace=wrap;html=1;fixedSize=1;" parent="WIyWlLk6GJQsqaUBKTNV-1" vertex="1">
          <mxGeometry x="15" y="919" width="120" height="80" as="geometry" />
        </mxCell>
        <mxCell id="_NAADeI3S30oYF9qwLOf-25" value="" style="edgeStyle=orthogonalEdgeStyle;rounded=0;orthogonalLoop=1;jettySize=auto;html=1;" parent="WIyWlLk6GJQsqaUBKTNV-1" source="knblfGrgIA1s73M3ITM0-2" target="knblfGrgIA1s73M3ITM0-7" edge="1">
          <mxGeometry relative="1" as="geometry" />
        </mxCell>
        <mxCell id="knblfGrgIA1s73M3ITM0-2" value="&lt;span data-lucid-content=&quot;{&amp;quot;t&amp;quot;:&amp;quot;Declare the LCD library\nDeclare RS232, I2C, PWM\nDefine Pin of sensor, button,\nbuzzer, L298N\nDeclare variable&amp;quot;,&amp;quot;m&amp;quot;:[{&amp;quot;s&amp;quot;:0,&amp;quot;n&amp;quot;:&amp;quot;a&amp;quot;,&amp;quot;v&amp;quot;:&amp;quot;center&amp;quot;},{&amp;quot;s&amp;quot;:0,&amp;quot;n&amp;quot;:&amp;quot;p&amp;quot;,&amp;quot;v&amp;quot;:1.2},{&amp;quot;s&amp;quot;:0,&amp;quot;n&amp;quot;:&amp;quot;s&amp;quot;,&amp;quot;v&amp;quot;:22.44444444444444,&amp;quot;e&amp;quot;:108},{&amp;quot;s&amp;quot;:0,&amp;quot;n&amp;quot;:&amp;quot;fsp&amp;quot;,&amp;quot;v&amp;quot;:&amp;quot;ss_presetShapeStyle1_textStyle&amp;quot;,&amp;quot;e&amp;quot;:108},{&amp;quot;s&amp;quot;:0,&amp;quot;n&amp;quot;:&amp;quot;fsp2&amp;quot;,&amp;quot;v&amp;quot;:&amp;quot;ss_presetShapeStyle1_textStyle&amp;quot;,&amp;quot;e&amp;quot;:108},{&amp;quot;s&amp;quot;:24,&amp;quot;n&amp;quot;:&amp;quot;a&amp;quot;,&amp;quot;v&amp;quot;:&amp;quot;center&amp;quot;},{&amp;quot;s&amp;quot;:24,&amp;quot;n&amp;quot;:&amp;quot;p&amp;quot;,&amp;quot;v&amp;quot;:1.2},{&amp;quot;s&amp;quot;:48,&amp;quot;n&amp;quot;:&amp;quot;a&amp;quot;,&amp;quot;v&amp;quot;:&amp;quot;center&amp;quot;},{&amp;quot;s&amp;quot;:48,&amp;quot;n&amp;quot;:&amp;quot;p&amp;quot;,&amp;quot;v&amp;quot;:1.2},{&amp;quot;s&amp;quot;:78,&amp;quot;n&amp;quot;:&amp;quot;a&amp;quot;,&amp;quot;v&amp;quot;:&amp;quot;center&amp;quot;},{&amp;quot;s&amp;quot;:78,&amp;quot;n&amp;quot;:&amp;quot;p&amp;quot;,&amp;quot;v&amp;quot;:1.2},{&amp;quot;s&amp;quot;:92,&amp;quot;n&amp;quot;:&amp;quot;a&amp;quot;,&amp;quot;v&amp;quot;:&amp;quot;center&amp;quot;},{&amp;quot;s&amp;quot;:92,&amp;quot;n&amp;quot;:&amp;quot;p&amp;quot;,&amp;quot;v&amp;quot;:1.2}]}&quot; data-lucid-type=&quot;application/vnd.lucid.text&quot;&gt;&lt;font style=&quot;font-size: 12px;&quot;&gt;&lt;span style=&quot;color: rgb(58, 65, 74);&quot;&gt;Declare the LCD library&lt;br&gt;&lt;/span&gt;&lt;span style=&quot;color: rgb(58, 65, 74);&quot;&gt;Declare RS232, I2C, PWM&lt;br&gt;&lt;/span&gt;&lt;span style=&quot;color: rgb(58, 65, 74);&quot;&gt;Define Pin of sensor, button,&lt;br&gt;&lt;/span&gt;&lt;span style=&quot;color: rgb(58, 65, 74);&quot;&gt;buzzer, L298N&lt;br&gt;&lt;/span&gt;&lt;span style=&quot;color: rgb(58, 65, 74);&quot;&gt;Declare variable&lt;/span&gt;&lt;/font&gt;&lt;/span&gt;" style="rounded=1;whiteSpace=wrap;html=1;" parent="WIyWlLk6GJQsqaUBKTNV-1" vertex="1">
          <mxGeometry x="-5" y="790" width="160" height="101" as="geometry" />
        </mxCell>
        <mxCell id="buGVn9j9YcIkH5qX3WIc-147" style="edgeStyle=orthogonalEdgeStyle;rounded=0;orthogonalLoop=1;jettySize=auto;html=1;exitX=0.5;exitY=0;exitDx=0;exitDy=0;entryX=0.5;entryY=1;entryDx=0;entryDy=0;" edge="1" parent="WIyWlLk6GJQsqaUBKTNV-1" source="knblfGrgIA1s73M3ITM0-7" target="knblfGrgIA1s73M3ITM0-15">
          <mxGeometry relative="1" as="geometry" />
        </mxCell>
        <mxCell id="knblfGrgIA1s73M3ITM0-7" value="&lt;span data-lucid-content=&quot;{&amp;quot;t&amp;quot;:&amp;quot;Set up I/O\nInitialize Timer 1, Timer 2\nSet up ADC_port\nSet up CCP1\nTurn off peripheral&amp;quot;,&amp;quot;m&amp;quot;:[{&amp;quot;s&amp;quot;:0,&amp;quot;n&amp;quot;:&amp;quot;a&amp;quot;,&amp;quot;v&amp;quot;:&amp;quot;center&amp;quot;},{&amp;quot;s&amp;quot;:0,&amp;quot;n&amp;quot;:&amp;quot;p&amp;quot;,&amp;quot;v&amp;quot;:1.2},{&amp;quot;s&amp;quot;:11,&amp;quot;n&amp;quot;:&amp;quot;a&amp;quot;,&amp;quot;v&amp;quot;:&amp;quot;center&amp;quot;},{&amp;quot;s&amp;quot;:11,&amp;quot;n&amp;quot;:&amp;quot;p&amp;quot;,&amp;quot;v&amp;quot;:1.2},{&amp;quot;s&amp;quot;:39,&amp;quot;n&amp;quot;:&amp;quot;a&amp;quot;,&amp;quot;v&amp;quot;:&amp;quot;center&amp;quot;},{&amp;quot;s&amp;quot;:39,&amp;quot;n&amp;quot;:&amp;quot;p&amp;quot;,&amp;quot;v&amp;quot;:1.2},{&amp;quot;s&amp;quot;:55,&amp;quot;n&amp;quot;:&amp;quot;a&amp;quot;,&amp;quot;v&amp;quot;:&amp;quot;center&amp;quot;},{&amp;quot;s&amp;quot;:55,&amp;quot;n&amp;quot;:&amp;quot;p&amp;quot;,&amp;quot;v&amp;quot;:1.2},{&amp;quot;s&amp;quot;:67,&amp;quot;n&amp;quot;:&amp;quot;a&amp;quot;,&amp;quot;v&amp;quot;:&amp;quot;center&amp;quot;},{&amp;quot;s&amp;quot;:67,&amp;quot;n&amp;quot;:&amp;quot;p&amp;quot;,&amp;quot;v&amp;quot;:1.2},{&amp;quot;s&amp;quot;:0,&amp;quot;n&amp;quot;:&amp;quot;c&amp;quot;,&amp;quot;v&amp;quot;:&amp;quot;#3a414aff&amp;quot;,&amp;quot;e&amp;quot;:86},{&amp;quot;s&amp;quot;:0,&amp;quot;n&amp;quot;:&amp;quot;fsp&amp;quot;,&amp;quot;v&amp;quot;:&amp;quot;ss_presetShapeStyle1_textStyle&amp;quot;,&amp;quot;e&amp;quot;:86},{&amp;quot;s&amp;quot;:0,&amp;quot;n&amp;quot;:&amp;quot;s&amp;quot;,&amp;quot;v&amp;quot;:22.44444444444444,&amp;quot;e&amp;quot;:86}]}&quot; data-lucid-type=&quot;application/vnd.lucid.text&quot;&gt;&lt;font style=&quot;font-size: 12px;&quot;&gt;&lt;span style=&quot;color: rgb(58, 65, 74);&quot;&gt;Set up I/O&lt;br&gt;&lt;/span&gt;&lt;span style=&quot;color: rgb(58, 65, 74);&quot;&gt;Initialize Timer 1, Timer 2&lt;br&gt;&lt;/span&gt;&lt;span style=&quot;color: rgb(58, 65, 74);&quot;&gt;Set up ADC_port&lt;br&gt;&lt;/span&gt;&lt;span style=&quot;color: rgb(58, 65, 74);&quot;&gt;Set up CCP1&lt;br&gt;&lt;/span&gt;&lt;span style=&quot;color: rgb(58, 65, 74);&quot;&gt;Turn off peripheral&lt;/span&gt;&lt;/font&gt;&lt;/span&gt;" style="rounded=1;whiteSpace=wrap;html=1;" parent="WIyWlLk6GJQsqaUBKTNV-1" vertex="1">
          <mxGeometry x="5" y="680" width="140" height="83" as="geometry" />
        </mxCell>
        <mxCell id="knblfGrgIA1s73M3ITM0-50" value="" style="edgeStyle=orthogonalEdgeStyle;rounded=0;orthogonalLoop=1;jettySize=auto;html=1;" parent="WIyWlLk6GJQsqaUBKTNV-1" source="knblfGrgIA1s73M3ITM0-15" target="knblfGrgIA1s73M3ITM0-16" edge="1">
          <mxGeometry relative="1" as="geometry" />
        </mxCell>
        <mxCell id="knblfGrgIA1s73M3ITM0-15" value="&lt;span data-lucid-content=&quot;{&amp;quot;t&amp;quot;:&amp;quot;Blink LED_Signal and three times&amp;quot;,&amp;quot;m&amp;quot;:[{&amp;quot;s&amp;quot;:0,&amp;quot;n&amp;quot;:&amp;quot;p&amp;quot;,&amp;quot;v&amp;quot;:1.2},{&amp;quot;s&amp;quot;:0,&amp;quot;n&amp;quot;:&amp;quot;a&amp;quot;,&amp;quot;v&amp;quot;:&amp;quot;center&amp;quot;},{&amp;quot;s&amp;quot;:0,&amp;quot;n&amp;quot;:&amp;quot;s&amp;quot;,&amp;quot;v&amp;quot;:22.44444444444444,&amp;quot;e&amp;quot;:32},{&amp;quot;s&amp;quot;:0,&amp;quot;n&amp;quot;:&amp;quot;fsp&amp;quot;,&amp;quot;v&amp;quot;:&amp;quot;ss_presetShapeStyle1_textStyle&amp;quot;,&amp;quot;e&amp;quot;:32},{&amp;quot;s&amp;quot;:0,&amp;quot;n&amp;quot;:&amp;quot;fsp2&amp;quot;,&amp;quot;v&amp;quot;:&amp;quot;ss_presetShapeStyle1_textStyle&amp;quot;,&amp;quot;e&amp;quot;:32}]}&quot; data-lucid-type=&quot;application/vnd.lucid.text&quot;&gt;&lt;span style=&quot;color: rgb(58, 65, 74);&quot;&gt;&lt;font style=&quot;font-size: 12px;&quot;&gt;Blink LED_Signal and Buzzer three times&lt;/font&gt;&lt;/span&gt;&lt;/span&gt;" style="rounded=1;whiteSpace=wrap;html=1;" parent="WIyWlLk6GJQsqaUBKTNV-1" vertex="1">
          <mxGeometry x="15" y="585" width="120" height="60" as="geometry" />
        </mxCell>
        <mxCell id="hntqBbyRDv-MwokLAV71-1" value="" style="edgeStyle=orthogonalEdgeStyle;rounded=0;orthogonalLoop=1;jettySize=auto;html=1;" parent="WIyWlLk6GJQsqaUBKTNV-1" source="knblfGrgIA1s73M3ITM0-16" target="knblfGrgIA1s73M3ITM0-20" edge="1">
          <mxGeometry relative="1" as="geometry">
            <Array as="points">
              <mxPoint x="70" y="355" />
            </Array>
          </mxGeometry>
        </mxCell>
        <mxCell id="knblfGrgIA1s73M3ITM0-16" value="&lt;span data-lucid-content=&quot;{&amp;quot;t&amp;quot;:&amp;quot;Initialization LCD\nPrint \&amp;quot;LCD 16x2 Test Working!\&amp;quot;&amp;quot;,&amp;quot;m&amp;quot;:[{&amp;quot;s&amp;quot;:0,&amp;quot;n&amp;quot;:&amp;quot;p&amp;quot;,&amp;quot;v&amp;quot;:1.2},{&amp;quot;s&amp;quot;:0,&amp;quot;n&amp;quot;:&amp;quot;a&amp;quot;,&amp;quot;v&amp;quot;:&amp;quot;center&amp;quot;},{&amp;quot;s&amp;quot;:0,&amp;quot;n&amp;quot;:&amp;quot;s&amp;quot;,&amp;quot;v&amp;quot;:22.44444444444444,&amp;quot;e&amp;quot;:49},{&amp;quot;s&amp;quot;:0,&amp;quot;n&amp;quot;:&amp;quot;fsp&amp;quot;,&amp;quot;v&amp;quot;:&amp;quot;ss_presetShapeStyle1_textStyle&amp;quot;,&amp;quot;e&amp;quot;:49},{&amp;quot;s&amp;quot;:0,&amp;quot;n&amp;quot;:&amp;quot;fsp2&amp;quot;,&amp;quot;v&amp;quot;:&amp;quot;ss_presetShapeStyle1_textStyle&amp;quot;,&amp;quot;e&amp;quot;:49},{&amp;quot;s&amp;quot;:19,&amp;quot;n&amp;quot;:&amp;quot;p&amp;quot;,&amp;quot;v&amp;quot;:1.2},{&amp;quot;s&amp;quot;:19,&amp;quot;n&amp;quot;:&amp;quot;a&amp;quot;,&amp;quot;v&amp;quot;:&amp;quot;center&amp;quot;}]}&quot; data-lucid-type=&quot;application/vnd.lucid.text&quot;&gt;&lt;font style=&quot;font-size: 12px;&quot;&gt;&lt;span style=&quot;color: rgb(58, 65, 74);&quot;&gt;Initialization LCD&lt;br&gt;&lt;/span&gt;&lt;span style=&quot;color: rgb(58, 65, 74);&quot;&gt;Print &quot;LCD 16x2 Test Working!&quot;&lt;br&gt;Stop motor&lt;/span&gt;&lt;/font&gt;&lt;/span&gt;" style="rounded=1;whiteSpace=wrap;html=1;" parent="WIyWlLk6GJQsqaUBKTNV-1" vertex="1">
          <mxGeometry x="15" y="470" width="120" height="60" as="geometry" />
        </mxCell>
        <mxCell id="buGVn9j9YcIkH5qX3WIc-149" style="edgeStyle=orthogonalEdgeStyle;rounded=0;orthogonalLoop=1;jettySize=auto;html=1;exitX=0.5;exitY=1;exitDx=0;exitDy=0;entryX=0.5;entryY=0;entryDx=0;entryDy=0;" edge="1" parent="WIyWlLk6GJQsqaUBKTNV-1" source="knblfGrgIA1s73M3ITM0-20" target="hntqBbyRDv-MwokLAV71-4">
          <mxGeometry relative="1" as="geometry" />
        </mxCell>
        <mxCell id="buGVn9j9YcIkH5qX3WIc-163" value="YES" style="edgeLabel;html=1;align=center;verticalAlign=middle;resizable=0;points=[];" vertex="1" connectable="0" parent="buGVn9j9YcIkH5qX3WIc-149">
          <mxGeometry x="0.0222" y="-2" relative="1" as="geometry">
            <mxPoint x="-18" as="offset" />
          </mxGeometry>
        </mxCell>
        <mxCell id="buGVn9j9YcIkH5qX3WIc-154" value="" style="edgeStyle=orthogonalEdgeStyle;rounded=0;orthogonalLoop=1;jettySize=auto;html=1;" edge="1" parent="WIyWlLk6GJQsqaUBKTNV-1" source="knblfGrgIA1s73M3ITM0-20" target="buGVn9j9YcIkH5qX3WIc-153">
          <mxGeometry relative="1" as="geometry" />
        </mxCell>
        <mxCell id="buGVn9j9YcIkH5qX3WIc-164" value="NO" style="edgeLabel;html=1;align=center;verticalAlign=middle;resizable=0;points=[];" vertex="1" connectable="0" parent="buGVn9j9YcIkH5qX3WIc-154">
          <mxGeometry x="-0.2734" y="4" relative="1" as="geometry">
            <mxPoint y="-11" as="offset" />
          </mxGeometry>
        </mxCell>
        <mxCell id="knblfGrgIA1s73M3ITM0-20" value="TRUE" style="rhombus;whiteSpace=wrap;html=1;" parent="WIyWlLk6GJQsqaUBKTNV-1" vertex="1">
          <mxGeometry x="230" y="320" width="120" height="70" as="geometry" />
        </mxCell>
        <mxCell id="buGVn9j9YcIkH5qX3WIc-156" value="" style="edgeStyle=orthogonalEdgeStyle;rounded=0;orthogonalLoop=1;jettySize=auto;html=1;" edge="1" parent="WIyWlLk6GJQsqaUBKTNV-1" source="knblfGrgIA1s73M3ITM0-23" target="buGVn9j9YcIkH5qX3WIc-155">
          <mxGeometry relative="1" as="geometry" />
        </mxCell>
        <mxCell id="knblfGrgIA1s73M3ITM0-23" value="Command = get(c)" style="rounded=1;whiteSpace=wrap;html=1;" parent="WIyWlLk6GJQsqaUBKTNV-1" vertex="1">
          <mxGeometry x="180" y="970" width="220" height="60" as="geometry" />
        </mxCell>
        <mxCell id="knblfGrgIA1s73M3ITM0-32" style="edgeStyle=orthogonalEdgeStyle;rounded=0;orthogonalLoop=1;jettySize=auto;html=1;exitX=0.5;exitY=1;exitDx=0;exitDy=0;entryX=0;entryY=0.5;entryDx=0;entryDy=0;" parent="WIyWlLk6GJQsqaUBKTNV-1" source="knblfGrgIA1s73M3ITM0-24" target="knblfGrgIA1s73M3ITM0-25" edge="1">
          <mxGeometry relative="1" as="geometry">
            <Array as="points">
              <mxPoint x="670" y="510" />
            </Array>
          </mxGeometry>
        </mxCell>
        <mxCell id="_NAADeI3S30oYF9qwLOf-9" value="F" style="edgeLabel;html=1;align=center;verticalAlign=middle;resizable=0;points=[];" parent="knblfGrgIA1s73M3ITM0-32" vertex="1" connectable="0">
          <mxGeometry x="-0.1629" y="-1" relative="1" as="geometry">
            <mxPoint x="42" y="-11" as="offset" />
          </mxGeometry>
        </mxCell>
        <mxCell id="knblfGrgIA1s73M3ITM0-36" style="edgeStyle=orthogonalEdgeStyle;rounded=0;orthogonalLoop=1;jettySize=auto;html=1;entryX=0;entryY=0.5;entryDx=0;entryDy=0;" parent="WIyWlLk6GJQsqaUBKTNV-1" source="knblfGrgIA1s73M3ITM0-24" target="knblfGrgIA1s73M3ITM0-27" edge="1">
          <mxGeometry relative="1" as="geometry">
            <Array as="points">
              <mxPoint x="670" y="600" />
            </Array>
          </mxGeometry>
        </mxCell>
        <mxCell id="_NAADeI3S30oYF9qwLOf-11" value="S" style="edgeLabel;html=1;align=center;verticalAlign=middle;resizable=0;points=[];" parent="knblfGrgIA1s73M3ITM0-36" vertex="1" connectable="0">
          <mxGeometry x="0.5538" relative="1" as="geometry">
            <mxPoint x="-8" y="-10" as="offset" />
          </mxGeometry>
        </mxCell>
        <mxCell id="knblfGrgIA1s73M3ITM0-37" style="edgeStyle=orthogonalEdgeStyle;rounded=0;orthogonalLoop=1;jettySize=auto;html=1;entryX=0;entryY=0.5;entryDx=0;entryDy=0;" parent="WIyWlLk6GJQsqaUBKTNV-1" source="knblfGrgIA1s73M3ITM0-24" target="knblfGrgIA1s73M3ITM0-28" edge="1">
          <mxGeometry relative="1" as="geometry">
            <Array as="points">
              <mxPoint x="670" y="680" />
            </Array>
          </mxGeometry>
        </mxCell>
        <mxCell id="_NAADeI3S30oYF9qwLOf-12" value="L" style="edgeLabel;html=1;align=center;verticalAlign=middle;resizable=0;points=[];" parent="knblfGrgIA1s73M3ITM0-37" vertex="1" connectable="0">
          <mxGeometry x="0.6661" y="-1" relative="1" as="geometry">
            <mxPoint x="-13" y="-11" as="offset" />
          </mxGeometry>
        </mxCell>
        <mxCell id="knblfGrgIA1s73M3ITM0-39" style="edgeStyle=orthogonalEdgeStyle;rounded=0;orthogonalLoop=1;jettySize=auto;html=1;entryX=0;entryY=0.5;entryDx=0;entryDy=0;" parent="WIyWlLk6GJQsqaUBKTNV-1" source="knblfGrgIA1s73M3ITM0-24" target="knblfGrgIA1s73M3ITM0-29" edge="1">
          <mxGeometry relative="1" as="geometry">
            <Array as="points">
              <mxPoint x="670" y="760" />
              <mxPoint x="800" y="760" />
            </Array>
          </mxGeometry>
        </mxCell>
        <mxCell id="_NAADeI3S30oYF9qwLOf-13" value="H" style="edgeLabel;html=1;align=center;verticalAlign=middle;resizable=0;points=[];" parent="knblfGrgIA1s73M3ITM0-39" vertex="1" connectable="0">
          <mxGeometry x="0.7304" y="-1" relative="1" as="geometry">
            <mxPoint x="-14" y="-15" as="offset" />
          </mxGeometry>
        </mxCell>
        <mxCell id="knblfGrgIA1s73M3ITM0-40" style="edgeStyle=orthogonalEdgeStyle;rounded=0;orthogonalLoop=1;jettySize=auto;html=1;entryX=0;entryY=0.5;entryDx=0;entryDy=0;" parent="WIyWlLk6GJQsqaUBKTNV-1" source="knblfGrgIA1s73M3ITM0-24" target="knblfGrgIA1s73M3ITM0-30" edge="1">
          <mxGeometry relative="1" as="geometry">
            <Array as="points">
              <mxPoint x="670" y="830" />
              <mxPoint x="800" y="830" />
            </Array>
          </mxGeometry>
        </mxCell>
        <mxCell id="_NAADeI3S30oYF9qwLOf-14" value="Other" style="edgeLabel;html=1;align=center;verticalAlign=middle;resizable=0;points=[];" parent="knblfGrgIA1s73M3ITM0-40" vertex="1" connectable="0">
          <mxGeometry x="0.7102" y="-4" relative="1" as="geometry">
            <mxPoint x="1" y="-14" as="offset" />
          </mxGeometry>
        </mxCell>
        <mxCell id="knblfGrgIA1s73M3ITM0-24" value="Command" style="rhombus;whiteSpace=wrap;html=1;" parent="WIyWlLk6GJQsqaUBKTNV-1" vertex="1">
          <mxGeometry x="610" y="410" width="120" height="80" as="geometry" />
        </mxCell>
        <mxCell id="knblfGrgIA1s73M3ITM0-42" style="edgeStyle=orthogonalEdgeStyle;rounded=0;orthogonalLoop=1;jettySize=auto;html=1;entryX=0.5;entryY=0;entryDx=0;entryDy=0;" parent="WIyWlLk6GJQsqaUBKTNV-1" target="knblfGrgIA1s73M3ITM0-41" edge="1">
          <mxGeometry relative="1" as="geometry">
            <mxPoint x="900" y="507.46000000000004" as="sourcePoint" />
          </mxGeometry>
        </mxCell>
        <mxCell id="knblfGrgIA1s73M3ITM0-25" value="Motor forward" style="rounded=1;whiteSpace=wrap;html=1;" parent="WIyWlLk6GJQsqaUBKTNV-1" vertex="1">
          <mxGeometry x="800" y="480" width="120" height="60" as="geometry" />
        </mxCell>
        <mxCell id="knblfGrgIA1s73M3ITM0-44" style="edgeStyle=orthogonalEdgeStyle;rounded=0;orthogonalLoop=1;jettySize=auto;html=1;entryX=0.5;entryY=0;entryDx=0;entryDy=0;" parent="WIyWlLk6GJQsqaUBKTNV-1" target="knblfGrgIA1s73M3ITM0-41" edge="1">
          <mxGeometry relative="1" as="geometry">
            <mxPoint x="900" y="597.46" as="sourcePoint" />
          </mxGeometry>
        </mxCell>
        <mxCell id="knblfGrgIA1s73M3ITM0-27" value="Motor stop" style="rounded=1;whiteSpace=wrap;html=1;" parent="WIyWlLk6GJQsqaUBKTNV-1" vertex="1">
          <mxGeometry x="800" y="570" width="120" height="60" as="geometry" />
        </mxCell>
        <mxCell id="_NAADeI3S30oYF9qwLOf-21" style="edgeStyle=orthogonalEdgeStyle;rounded=0;orthogonalLoop=1;jettySize=auto;html=1;exitX=1;exitY=0.5;exitDx=0;exitDy=0;" parent="WIyWlLk6GJQsqaUBKTNV-1" target="knblfGrgIA1s73M3ITM0-41" edge="1">
          <mxGeometry relative="1" as="geometry">
            <mxPoint x="1030" y="867.46" as="targetPoint" />
            <mxPoint x="900.75" y="677.46" as="sourcePoint" />
          </mxGeometry>
        </mxCell>
        <mxCell id="knblfGrgIA1s73M3ITM0-28" value="Low Speed" style="rounded=1;whiteSpace=wrap;html=1;" parent="WIyWlLk6GJQsqaUBKTNV-1" vertex="1">
          <mxGeometry x="800.75" y="650" width="120" height="60" as="geometry" />
        </mxCell>
        <mxCell id="knblfGrgIA1s73M3ITM0-46" style="edgeStyle=orthogonalEdgeStyle;rounded=0;orthogonalLoop=1;jettySize=auto;html=1;entryX=0.5;entryY=0;entryDx=0;entryDy=0;" parent="WIyWlLk6GJQsqaUBKTNV-1" target="knblfGrgIA1s73M3ITM0-41" edge="1">
          <mxGeometry relative="1" as="geometry">
            <mxPoint x="900" y="757.46" as="sourcePoint" />
          </mxGeometry>
        </mxCell>
        <mxCell id="knblfGrgIA1s73M3ITM0-29" value="High Speed" style="rounded=1;whiteSpace=wrap;html=1;" parent="WIyWlLk6GJQsqaUBKTNV-1" vertex="1">
          <mxGeometry x="800" y="730" width="120" height="60" as="geometry" />
        </mxCell>
        <mxCell id="_NAADeI3S30oYF9qwLOf-22" style="edgeStyle=orthogonalEdgeStyle;rounded=0;orthogonalLoop=1;jettySize=auto;html=1;entryX=0.5;entryY=0;entryDx=0;entryDy=0;" parent="WIyWlLk6GJQsqaUBKTNV-1" target="knblfGrgIA1s73M3ITM0-41" edge="1">
          <mxGeometry relative="1" as="geometry">
            <mxPoint x="1030" y="867.46" as="targetPoint" />
            <Array as="points">
              <mxPoint x="1030" y="827.46" />
            </Array>
            <mxPoint x="900" y="827.46" as="sourcePoint" />
          </mxGeometry>
        </mxCell>
        <mxCell id="knblfGrgIA1s73M3ITM0-30" value="Err:InvalidCmd" style="rounded=1;whiteSpace=wrap;html=1;" parent="WIyWlLk6GJQsqaUBKTNV-1" vertex="1">
          <mxGeometry x="800" y="800" width="120" height="60" as="geometry" />
        </mxCell>
        <mxCell id="buGVn9j9YcIkH5qX3WIc-16" value="" style="edgeStyle=orthogonalEdgeStyle;rounded=0;orthogonalLoop=1;jettySize=auto;html=1;" edge="1" parent="WIyWlLk6GJQsqaUBKTNV-1" source="knblfGrgIA1s73M3ITM0-41" target="knblfGrgIA1s73M3ITM0-56">
          <mxGeometry relative="1" as="geometry" />
        </mxCell>
        <mxCell id="knblfGrgIA1s73M3ITM0-41" value="Clear UART" style="rounded=1;whiteSpace=wrap;html=1;" parent="WIyWlLk6GJQsqaUBKTNV-1" vertex="1">
          <mxGeometry x="970" y="887.46" width="120" height="60" as="geometry" />
        </mxCell>
        <mxCell id="buGVn9j9YcIkH5qX3WIc-17" value="" style="edgeStyle=orthogonalEdgeStyle;rounded=0;orthogonalLoop=1;jettySize=auto;html=1;" edge="1" parent="WIyWlLk6GJQsqaUBKTNV-1" source="knblfGrgIA1s73M3ITM0-56" target="MECVlYbCM5brJ3BuSjMC-4">
          <mxGeometry relative="1" as="geometry" />
        </mxCell>
        <mxCell id="knblfGrgIA1s73M3ITM0-56" value="Read Sensor value" style="rounded=1;whiteSpace=wrap;html=1;" parent="WIyWlLk6GJQsqaUBKTNV-1" vertex="1">
          <mxGeometry x="970" y="970" width="120" height="60" as="geometry" />
        </mxCell>
        <mxCell id="buGVn9j9YcIkH5qX3WIc-19" value="" style="edgeStyle=orthogonalEdgeStyle;rounded=0;orthogonalLoop=1;jettySize=auto;html=1;" edge="1" parent="WIyWlLk6GJQsqaUBKTNV-1" source="MECVlYbCM5brJ3BuSjMC-4" target="buGVn9j9YcIkH5qX3WIc-18">
          <mxGeometry relative="1" as="geometry" />
        </mxCell>
        <mxCell id="MECVlYbCM5brJ3BuSjMC-4" value="Send Distance,&amp;nbsp;&lt;span style=&quot;background-color: transparent; color: light-dark(rgb(0, 0, 0), rgb(255, 255, 255));&quot;&gt;MQ3, Pulse to UART and Print on LCD&lt;/span&gt;" style="rounded=1;whiteSpace=wrap;html=1;" parent="WIyWlLk6GJQsqaUBKTNV-1" vertex="1">
          <mxGeometry x="1170" y="970" width="120" height="60" as="geometry" />
        </mxCell>
        <mxCell id="_NAADeI3S30oYF9qwLOf-35" style="edgeStyle=orthogonalEdgeStyle;rounded=0;orthogonalLoop=1;jettySize=auto;html=1;" parent="WIyWlLk6GJQsqaUBKTNV-1" source="_NAADeI3S30oYF9qwLOf-26" edge="1">
          <mxGeometry relative="1" as="geometry">
            <mxPoint x="430" y="660" as="targetPoint" />
          </mxGeometry>
        </mxCell>
        <mxCell id="hntqBbyRDv-MwokLAV71-2" value="YES" style="edgeLabel;html=1;align=center;verticalAlign=middle;resizable=0;points=[];" parent="_NAADeI3S30oYF9qwLOf-35" vertex="1" connectable="0">
          <mxGeometry x="-0.4392" y="2" relative="1" as="geometry">
            <mxPoint as="offset" />
          </mxGeometry>
        </mxCell>
        <mxCell id="buGVn9j9YcIkH5qX3WIc-4" style="edgeStyle=orthogonalEdgeStyle;rounded=0;orthogonalLoop=1;jettySize=auto;html=1;exitX=0.5;exitY=1;exitDx=0;exitDy=0;entryX=0.5;entryY=0;entryDx=0;entryDy=0;" edge="1" parent="WIyWlLk6GJQsqaUBKTNV-1" source="_NAADeI3S30oYF9qwLOf-26" target="_NAADeI3S30oYF9qwLOf-38">
          <mxGeometry relative="1" as="geometry" />
        </mxCell>
        <mxCell id="buGVn9j9YcIkH5qX3WIc-8" value="NO" style="edgeLabel;html=1;align=center;verticalAlign=middle;resizable=0;points=[];" vertex="1" connectable="0" parent="buGVn9j9YcIkH5qX3WIc-4">
          <mxGeometry x="-0.16" relative="1" as="geometry">
            <mxPoint x="10" y="4" as="offset" />
          </mxGeometry>
        </mxCell>
        <mxCell id="_NAADeI3S30oYF9qwLOf-26" value="&lt;div&gt;emergency_pause = 1?&amp;nbsp;&lt;/div&gt;" style="rhombus;whiteSpace=wrap;html=1;" parent="WIyWlLk6GJQsqaUBKTNV-1" vertex="1">
          <mxGeometry x="200" y="620" width="180" height="80" as="geometry" />
        </mxCell>
        <mxCell id="buGVn9j9YcIkH5qX3WIc-7" style="edgeStyle=orthogonalEdgeStyle;rounded=0;orthogonalLoop=1;jettySize=auto;html=1;exitX=0.5;exitY=0;exitDx=0;exitDy=0;" edge="1" parent="WIyWlLk6GJQsqaUBKTNV-1">
          <mxGeometry relative="1" as="geometry">
            <mxPoint x="292.5" y="600" as="targetPoint" />
            <mxPoint x="525" y="630" as="sourcePoint" />
            <Array as="points">
              <mxPoint x="542.5" y="630" />
              <mxPoint x="542.5" y="600" />
            </Array>
          </mxGeometry>
        </mxCell>
        <mxCell id="_NAADeI3S30oYF9qwLOf-33" value="&lt;div&gt;- Turn off the system&lt;br&gt;- Clear LCD Print &quot;Emergency Pause&quot; on LCD and send UART&lt;/div&gt;" style="rounded=1;whiteSpace=wrap;html=1;" parent="WIyWlLk6GJQsqaUBKTNV-1" vertex="1">
          <mxGeometry x="407.5" y="630" width="190" height="60" as="geometry" />
        </mxCell>
        <mxCell id="buGVn9j9YcIkH5qX3WIc-12" value="" style="edgeStyle=orthogonalEdgeStyle;rounded=0;orthogonalLoop=1;jettySize=auto;html=1;" edge="1" parent="WIyWlLk6GJQsqaUBKTNV-1" source="_NAADeI3S30oYF9qwLOf-38" target="buGVn9j9YcIkH5qX3WIc-11">
          <mxGeometry relative="1" as="geometry" />
        </mxCell>
        <mxCell id="_NAADeI3S30oYF9qwLOf-38" value="&lt;li class=&quot;break-words&quot;&gt;Clear LCD, Print &quot;System Resume&quot; và send UART&lt;/li&gt;&lt;li class=&quot;break-words&quot;&gt;Resume the system&lt;/li&gt;" style="rounded=1;whiteSpace=wrap;html=1;" parent="WIyWlLk6GJQsqaUBKTNV-1" vertex="1">
          <mxGeometry x="180" y="750" width="220" height="60" as="geometry" />
        </mxCell>
        <mxCell id="hntqBbyRDv-MwokLAV71-0" style="edgeStyle=orthogonalEdgeStyle;rounded=0;orthogonalLoop=1;jettySize=auto;html=1;exitX=0.5;exitY=1;exitDx=0;exitDy=0;" parent="WIyWlLk6GJQsqaUBKTNV-1" source="knblfGrgIA1s73M3ITM0-16" target="knblfGrgIA1s73M3ITM0-16" edge="1">
          <mxGeometry relative="1" as="geometry" />
        </mxCell>
        <mxCell id="buGVn9j9YcIkH5qX3WIc-2" style="edgeStyle=orthogonalEdgeStyle;rounded=0;orthogonalLoop=1;jettySize=auto;html=1;exitX=0.5;exitY=1;exitDx=0;exitDy=0;entryX=0.5;entryY=0;entryDx=0;entryDy=0;" edge="1" parent="WIyWlLk6GJQsqaUBKTNV-1" target="buGVn9j9YcIkH5qX3WIc-1">
          <mxGeometry relative="1" as="geometry">
            <mxPoint x="290" y="490" as="sourcePoint" />
          </mxGeometry>
        </mxCell>
        <mxCell id="hntqBbyRDv-MwokLAV71-4" value="emergency_button = 1 ?" style="rhombus;whiteSpace=wrap;html=1;" parent="WIyWlLk6GJQsqaUBKTNV-1" vertex="1">
          <mxGeometry x="202.5" y="420" width="175" height="70" as="geometry" />
        </mxCell>
        <mxCell id="buGVn9j9YcIkH5qX3WIc-3" style="edgeStyle=orthogonalEdgeStyle;rounded=0;orthogonalLoop=1;jettySize=auto;html=1;exitX=0.5;exitY=1;exitDx=0;exitDy=0;entryX=0.5;entryY=0;entryDx=0;entryDy=0;" edge="1" parent="WIyWlLk6GJQsqaUBKTNV-1" source="buGVn9j9YcIkH5qX3WIc-1" target="_NAADeI3S30oYF9qwLOf-26">
          <mxGeometry relative="1" as="geometry" />
        </mxCell>
        <mxCell id="buGVn9j9YcIkH5qX3WIc-1" value="Reverse emergency_pause" style="rounded=1;whiteSpace=wrap;html=1;" vertex="1" parent="WIyWlLk6GJQsqaUBKTNV-1">
          <mxGeometry x="230" y="520" width="120" height="60" as="geometry" />
        </mxCell>
        <mxCell id="buGVn9j9YcIkH5qX3WIc-14" value="" style="edgeStyle=orthogonalEdgeStyle;rounded=0;orthogonalLoop=1;jettySize=auto;html=1;" edge="1" parent="WIyWlLk6GJQsqaUBKTNV-1" source="buGVn9j9YcIkH5qX3WIc-11" target="knblfGrgIA1s73M3ITM0-23">
          <mxGeometry relative="1" as="geometry" />
        </mxCell>
        <mxCell id="buGVn9j9YcIkH5qX3WIc-11" value="&lt;p style=&quot;white-space-collapse: preserve;&quot; dir=&quot;auto&quot;&gt;UART data available?&lt;/p&gt;" style="whiteSpace=wrap;html=1;rounded=1;" vertex="1" parent="WIyWlLk6GJQsqaUBKTNV-1">
          <mxGeometry x="180" y="860" width="220" height="60" as="geometry" />
        </mxCell>
        <mxCell id="buGVn9j9YcIkH5qX3WIc-22" value="" style="edgeStyle=orthogonalEdgeStyle;rounded=0;orthogonalLoop=1;jettySize=auto;html=1;" edge="1" parent="WIyWlLk6GJQsqaUBKTNV-1" source="buGVn9j9YcIkH5qX3WIc-18" target="buGVn9j9YcIkH5qX3WIc-21">
          <mxGeometry relative="1" as="geometry" />
        </mxCell>
        <mxCell id="buGVn9j9YcIkH5qX3WIc-34" value="YES" style="edgeLabel;html=1;align=center;verticalAlign=middle;resizable=0;points=[];" vertex="1" connectable="0" parent="buGVn9j9YcIkH5qX3WIc-22">
          <mxGeometry x="-0.008" y="3" relative="1" as="geometry">
            <mxPoint x="23" y="5" as="offset" />
          </mxGeometry>
        </mxCell>
        <mxCell id="buGVn9j9YcIkH5qX3WIc-80" value="" style="edgeStyle=orthogonalEdgeStyle;rounded=0;orthogonalLoop=1;jettySize=auto;html=1;" edge="1" parent="WIyWlLk6GJQsqaUBKTNV-1" source="buGVn9j9YcIkH5qX3WIc-18" target="buGVn9j9YcIkH5qX3WIc-79">
          <mxGeometry relative="1" as="geometry" />
        </mxCell>
        <mxCell id="buGVn9j9YcIkH5qX3WIc-93" value="NO" style="edgeLabel;html=1;align=center;verticalAlign=middle;resizable=0;points=[];" vertex="1" connectable="0" parent="buGVn9j9YcIkH5qX3WIc-80">
          <mxGeometry x="-0.1219" y="5" relative="1" as="geometry">
            <mxPoint y="-4" as="offset" />
          </mxGeometry>
        </mxCell>
        <mxCell id="buGVn9j9YcIkH5qX3WIc-18" value="Motor running in High speed mode" style="rhombus;whiteSpace=wrap;html=1;" vertex="1" parent="WIyWlLk6GJQsqaUBKTNV-1">
          <mxGeometry x="1120" y="868.46" width="220" height="79" as="geometry" />
        </mxCell>
        <mxCell id="buGVn9j9YcIkH5qX3WIc-24" value="" style="edgeStyle=orthogonalEdgeStyle;rounded=0;orthogonalLoop=1;jettySize=auto;html=1;" edge="1" parent="WIyWlLk6GJQsqaUBKTNV-1" source="buGVn9j9YcIkH5qX3WIc-21" target="buGVn9j9YcIkH5qX3WIc-23">
          <mxGeometry relative="1" as="geometry" />
        </mxCell>
        <mxCell id="buGVn9j9YcIkH5qX3WIc-35" value="NO" style="edgeLabel;html=1;align=center;verticalAlign=middle;resizable=0;points=[];" vertex="1" connectable="0" parent="buGVn9j9YcIkH5qX3WIc-24">
          <mxGeometry x="-0.2476" y="1" relative="1" as="geometry">
            <mxPoint x="21" y="-5" as="offset" />
          </mxGeometry>
        </mxCell>
        <mxCell id="buGVn9j9YcIkH5qX3WIc-36" value="" style="edgeStyle=orthogonalEdgeStyle;rounded=0;orthogonalLoop=1;jettySize=auto;html=1;" edge="1" parent="WIyWlLk6GJQsqaUBKTNV-1" source="buGVn9j9YcIkH5qX3WIc-21" target="buGVn9j9YcIkH5qX3WIc-23">
          <mxGeometry relative="1" as="geometry" />
        </mxCell>
        <mxCell id="buGVn9j9YcIkH5qX3WIc-165" style="edgeStyle=orthogonalEdgeStyle;rounded=0;orthogonalLoop=1;jettySize=auto;html=1;" edge="1" parent="WIyWlLk6GJQsqaUBKTNV-1" source="buGVn9j9YcIkH5qX3WIc-21" target="buGVn9j9YcIkH5qX3WIc-27">
          <mxGeometry relative="1" as="geometry" />
        </mxCell>
        <mxCell id="buGVn9j9YcIkH5qX3WIc-21" value="&lt;p style=&quot;white-space-collapse: preserve;&quot; dir=&quot;auto&quot;&gt;100 &amp;lt; Distance &amp;lt; 120&lt;/p&gt;" style="rhombus;whiteSpace=wrap;html=1;" vertex="1" parent="WIyWlLk6GJQsqaUBKTNV-1">
          <mxGeometry x="1120" y="770" width="220" height="79" as="geometry" />
        </mxCell>
        <mxCell id="buGVn9j9YcIkH5qX3WIc-26" value="" style="edgeStyle=orthogonalEdgeStyle;rounded=0;orthogonalLoop=1;jettySize=auto;html=1;" edge="1" parent="WIyWlLk6GJQsqaUBKTNV-1" source="buGVn9j9YcIkH5qX3WIc-23" target="buGVn9j9YcIkH5qX3WIc-25">
          <mxGeometry relative="1" as="geometry" />
        </mxCell>
        <mxCell id="buGVn9j9YcIkH5qX3WIc-37" value="NO" style="edgeLabel;html=1;align=center;verticalAlign=middle;resizable=0;points=[];" vertex="1" connectable="0" parent="buGVn9j9YcIkH5qX3WIc-26">
          <mxGeometry x="0.1753" relative="1" as="geometry">
            <mxPoint x="20" as="offset" />
          </mxGeometry>
        </mxCell>
        <mxCell id="buGVn9j9YcIkH5qX3WIc-30" value="" style="edgeStyle=orthogonalEdgeStyle;rounded=0;orthogonalLoop=1;jettySize=auto;html=1;" edge="1" parent="WIyWlLk6GJQsqaUBKTNV-1" source="buGVn9j9YcIkH5qX3WIc-23" target="buGVn9j9YcIkH5qX3WIc-29">
          <mxGeometry relative="1" as="geometry" />
        </mxCell>
        <mxCell id="buGVn9j9YcIkH5qX3WIc-23" value="&lt;p style=&quot;white-space-collapse: preserve;&quot; dir=&quot;auto&quot;&gt;20 &amp;lt; Distance &amp;lt; 100&lt;/p&gt;" style="rhombus;whiteSpace=wrap;html=1;" vertex="1" parent="WIyWlLk6GJQsqaUBKTNV-1">
          <mxGeometry x="1120" y="658.46" width="220" height="79" as="geometry" />
        </mxCell>
        <mxCell id="buGVn9j9YcIkH5qX3WIc-33" value="" style="edgeStyle=orthogonalEdgeStyle;rounded=0;orthogonalLoop=1;jettySize=auto;html=1;" edge="1" parent="WIyWlLk6GJQsqaUBKTNV-1" source="buGVn9j9YcIkH5qX3WIc-25" target="buGVn9j9YcIkH5qX3WIc-32">
          <mxGeometry relative="1" as="geometry" />
        </mxCell>
        <mxCell id="buGVn9j9YcIkH5qX3WIc-43" value="" style="edgeStyle=orthogonalEdgeStyle;rounded=0;orthogonalLoop=1;jettySize=auto;html=1;" edge="1" parent="WIyWlLk6GJQsqaUBKTNV-1" source="buGVn9j9YcIkH5qX3WIc-25" target="buGVn9j9YcIkH5qX3WIc-42">
          <mxGeometry relative="1" as="geometry" />
        </mxCell>
        <mxCell id="buGVn9j9YcIkH5qX3WIc-94" value="NO" style="edgeLabel;html=1;align=center;verticalAlign=middle;resizable=0;points=[];" vertex="1" connectable="0" parent="buGVn9j9YcIkH5qX3WIc-43">
          <mxGeometry x="0.0504" y="2" relative="1" as="geometry">
            <mxPoint x="18" as="offset" />
          </mxGeometry>
        </mxCell>
        <mxCell id="buGVn9j9YcIkH5qX3WIc-25" value="&lt;p style=&quot;white-space-collapse: preserve;&quot; dir=&quot;auto&quot;&gt;2 &amp;lt; Distance &amp;lt; 20&lt;/p&gt;" style="rhombus;whiteSpace=wrap;html=1;" vertex="1" parent="WIyWlLk6GJQsqaUBKTNV-1">
          <mxGeometry x="1120" y="558.46" width="220" height="79" as="geometry" />
        </mxCell>
        <mxCell id="buGVn9j9YcIkH5qX3WIc-199" style="edgeStyle=orthogonalEdgeStyle;rounded=0;orthogonalLoop=1;jettySize=auto;html=1;" edge="1" parent="WIyWlLk6GJQsqaUBKTNV-1" source="buGVn9j9YcIkH5qX3WIc-27">
          <mxGeometry relative="1" as="geometry">
            <mxPoint x="1230" y="450" as="targetPoint" />
            <Array as="points">
              <mxPoint x="1660" y="810" />
              <mxPoint x="1660" y="450" />
            </Array>
          </mxGeometry>
        </mxCell>
        <mxCell id="buGVn9j9YcIkH5qX3WIc-27" value="&lt;p style=&quot;white-space-collapse: preserve;&quot; dir=&quot;auto&quot;&gt;current_alert_zone = 1&lt;/p&gt;" style="rounded=1;whiteSpace=wrap;html=1;" vertex="1" parent="WIyWlLk6GJQsqaUBKTNV-1">
          <mxGeometry x="1460" y="779.5" width="140" height="60" as="geometry" />
        </mxCell>
        <mxCell id="buGVn9j9YcIkH5qX3WIc-198" style="edgeStyle=orthogonalEdgeStyle;rounded=0;orthogonalLoop=1;jettySize=auto;html=1;" edge="1" parent="WIyWlLk6GJQsqaUBKTNV-1" source="buGVn9j9YcIkH5qX3WIc-29">
          <mxGeometry relative="1" as="geometry">
            <mxPoint x="1230" y="450" as="targetPoint" />
            <Array as="points">
              <mxPoint x="1660" y="698" />
              <mxPoint x="1660" y="450" />
            </Array>
          </mxGeometry>
        </mxCell>
        <mxCell id="buGVn9j9YcIkH5qX3WIc-29" value="&lt;p style=&quot;white-space-collapse: preserve;&quot; dir=&quot;auto&quot;&gt;current_alert_zone = 2&lt;/p&gt;" style="rounded=1;whiteSpace=wrap;html=1;" vertex="1" parent="WIyWlLk6GJQsqaUBKTNV-1">
          <mxGeometry x="1460" y="667.96" width="140" height="60" as="geometry" />
        </mxCell>
        <mxCell id="buGVn9j9YcIkH5qX3WIc-197" style="edgeStyle=orthogonalEdgeStyle;rounded=0;orthogonalLoop=1;jettySize=auto;html=1;" edge="1" parent="WIyWlLk6GJQsqaUBKTNV-1" source="buGVn9j9YcIkH5qX3WIc-32">
          <mxGeometry relative="1" as="geometry">
            <mxPoint x="1230" y="450" as="targetPoint" />
            <Array as="points">
              <mxPoint x="1660" y="598" />
              <mxPoint x="1660" y="450" />
            </Array>
          </mxGeometry>
        </mxCell>
        <mxCell id="buGVn9j9YcIkH5qX3WIc-32" value="&lt;p style=&quot;white-space-collapse: preserve;&quot; dir=&quot;auto&quot;&gt;current_alert_zone = 3&lt;/p&gt;" style="rounded=1;whiteSpace=wrap;html=1;" vertex="1" parent="WIyWlLk6GJQsqaUBKTNV-1">
          <mxGeometry x="1460" y="567.96" width="140" height="60" as="geometry" />
        </mxCell>
        <mxCell id="buGVn9j9YcIkH5qX3WIc-47" value="" style="edgeStyle=orthogonalEdgeStyle;rounded=0;orthogonalLoop=1;jettySize=auto;html=1;" edge="1" parent="WIyWlLk6GJQsqaUBKTNV-1" source="buGVn9j9YcIkH5qX3WIc-42" target="buGVn9j9YcIkH5qX3WIc-46">
          <mxGeometry relative="1" as="geometry" />
        </mxCell>
        <mxCell id="buGVn9j9YcIkH5qX3WIc-42" value="&lt;p style=&quot;white-space-collapse: preserve;&quot; dir=&quot;auto&quot;&gt;current_alert_zone = 0&lt;/p&gt;" style="rounded=1;whiteSpace=wrap;html=1;" vertex="1" parent="WIyWlLk6GJQsqaUBKTNV-1">
          <mxGeometry x="1145" y="470.00000000000006" width="170" height="60" as="geometry" />
        </mxCell>
        <mxCell id="buGVn9j9YcIkH5qX3WIc-50" value="" style="edgeStyle=orthogonalEdgeStyle;rounded=0;orthogonalLoop=1;jettySize=auto;html=1;" edge="1" parent="WIyWlLk6GJQsqaUBKTNV-1" source="buGVn9j9YcIkH5qX3WIc-46" target="buGVn9j9YcIkH5qX3WIc-49">
          <mxGeometry relative="1" as="geometry" />
        </mxCell>
        <mxCell id="buGVn9j9YcIkH5qX3WIc-95" value="YES" style="edgeLabel;html=1;align=center;verticalAlign=middle;resizable=0;points=[];" vertex="1" connectable="0" parent="buGVn9j9YcIkH5qX3WIc-50">
          <mxGeometry x="-0.06" y="2" relative="1" as="geometry">
            <mxPoint x="22" as="offset" />
          </mxGeometry>
        </mxCell>
        <mxCell id="buGVn9j9YcIkH5qX3WIc-52" value="" style="edgeStyle=orthogonalEdgeStyle;rounded=0;orthogonalLoop=1;jettySize=auto;html=1;" edge="1" parent="WIyWlLk6GJQsqaUBKTNV-1" source="buGVn9j9YcIkH5qX3WIc-46" target="buGVn9j9YcIkH5qX3WIc-51">
          <mxGeometry relative="1" as="geometry" />
        </mxCell>
        <mxCell id="buGVn9j9YcIkH5qX3WIc-97" value="NO" style="edgeLabel;html=1;align=center;verticalAlign=middle;resizable=0;points=[];" vertex="1" connectable="0" parent="buGVn9j9YcIkH5qX3WIc-52">
          <mxGeometry x="-0.2235" y="2" relative="1" as="geometry">
            <mxPoint x="3" y="-8" as="offset" />
          </mxGeometry>
        </mxCell>
        <mxCell id="buGVn9j9YcIkH5qX3WIc-46" value="&lt;p style=&quot;white-space-collapse: preserve;&quot; dir=&quot;auto&quot;&gt;current_alert_zone = last_alert_zone and  != 0&lt;/p&gt;" style="rhombus;whiteSpace=wrap;html=1;" vertex="1" parent="WIyWlLk6GJQsqaUBKTNV-1">
          <mxGeometry x="1075" y="350" width="310" height="80" as="geometry" />
        </mxCell>
        <mxCell id="buGVn9j9YcIkH5qX3WIc-167" value="" style="edgeStyle=orthogonalEdgeStyle;rounded=0;orthogonalLoop=1;jettySize=auto;html=1;" edge="1" parent="WIyWlLk6GJQsqaUBKTNV-1" source="buGVn9j9YcIkH5qX3WIc-49" target="buGVn9j9YcIkH5qX3WIc-166">
          <mxGeometry relative="1" as="geometry" />
        </mxCell>
        <mxCell id="buGVn9j9YcIkH5qX3WIc-49" value="&lt;p style=&quot;white-space-collapse: preserve;&quot; dir=&quot;auto&quot;&gt;Increase distance_alert_counter&lt;/p&gt;" style="rounded=1;whiteSpace=wrap;html=1;" vertex="1" parent="WIyWlLk6GJQsqaUBKTNV-1">
          <mxGeometry x="1160" y="270" width="140" height="60" as="geometry" />
        </mxCell>
        <mxCell id="buGVn9j9YcIkH5qX3WIc-169" value="" style="edgeStyle=orthogonalEdgeStyle;rounded=0;orthogonalLoop=1;jettySize=auto;html=1;" edge="1" parent="WIyWlLk6GJQsqaUBKTNV-1" source="buGVn9j9YcIkH5qX3WIc-51" target="buGVn9j9YcIkH5qX3WIc-168">
          <mxGeometry relative="1" as="geometry" />
        </mxCell>
        <mxCell id="buGVn9j9YcIkH5qX3WIc-51" value="&lt;p style=&quot;white-space-collapse: preserve;&quot; dir=&quot;auto&quot;&gt;Reset distance_alert_counter, alert_triggered&lt;/p&gt;" style="rounded=1;whiteSpace=wrap;html=1;" vertex="1" parent="WIyWlLk6GJQsqaUBKTNV-1">
          <mxGeometry x="900" y="360.00000000000006" width="140" height="60" as="geometry" />
        </mxCell>
        <mxCell id="buGVn9j9YcIkH5qX3WIc-58" value="" style="edgeStyle=orthogonalEdgeStyle;rounded=0;orthogonalLoop=1;jettySize=auto;html=1;" edge="1" parent="WIyWlLk6GJQsqaUBKTNV-1" source="buGVn9j9YcIkH5qX3WIc-55" target="buGVn9j9YcIkH5qX3WIc-57">
          <mxGeometry relative="1" as="geometry" />
        </mxCell>
        <mxCell id="buGVn9j9YcIkH5qX3WIc-98" value="YES" style="edgeLabel;html=1;align=center;verticalAlign=middle;resizable=0;points=[];" vertex="1" connectable="0" parent="buGVn9j9YcIkH5qX3WIc-58">
          <mxGeometry x="0.1529" y="1" relative="1" as="geometry">
            <mxPoint x="2" y="-19" as="offset" />
          </mxGeometry>
        </mxCell>
        <mxCell id="buGVn9j9YcIkH5qX3WIc-55" value="&lt;p style=&quot;white-space-collapse: preserve;&quot; dir=&quot;auto&quot;&gt;distance_alert_counter &amp;gt;= 300 &lt;br/&gt;and !alert_triggered&lt;/p&gt;" style="rhombus;whiteSpace=wrap;html=1;" vertex="1" parent="WIyWlLk6GJQsqaUBKTNV-1">
          <mxGeometry x="1793" y="360" width="250" height="80" as="geometry" />
        </mxCell>
        <mxCell id="buGVn9j9YcIkH5qX3WIc-160" value="" style="edgeStyle=orthogonalEdgeStyle;rounded=0;orthogonalLoop=1;jettySize=auto;html=1;" edge="1" parent="WIyWlLk6GJQsqaUBKTNV-1" source="buGVn9j9YcIkH5qX3WIc-57" target="buGVn9j9YcIkH5qX3WIc-61">
          <mxGeometry relative="1" as="geometry" />
        </mxCell>
        <mxCell id="buGVn9j9YcIkH5qX3WIc-175" value="NO" style="edgeLabel;html=1;align=center;verticalAlign=middle;resizable=0;points=[];" vertex="1" connectable="0" parent="buGVn9j9YcIkH5qX3WIc-160">
          <mxGeometry x="-0.25" y="2" relative="1" as="geometry">
            <mxPoint as="offset" />
          </mxGeometry>
        </mxCell>
        <mxCell id="buGVn9j9YcIkH5qX3WIc-173" value="" style="edgeStyle=orthogonalEdgeStyle;rounded=0;orthogonalLoop=1;jettySize=auto;html=1;" edge="1" parent="WIyWlLk6GJQsqaUBKTNV-1" source="buGVn9j9YcIkH5qX3WIc-57" target="buGVn9j9YcIkH5qX3WIc-59">
          <mxGeometry relative="1" as="geometry" />
        </mxCell>
        <mxCell id="buGVn9j9YcIkH5qX3WIc-174" value="YES" style="edgeLabel;html=1;align=center;verticalAlign=middle;resizable=0;points=[];" vertex="1" connectable="0" parent="buGVn9j9YcIkH5qX3WIc-173">
          <mxGeometry x="-0.2337" y="2" relative="1" as="geometry">
            <mxPoint as="offset" />
          </mxGeometry>
        </mxCell>
        <mxCell id="buGVn9j9YcIkH5qX3WIc-57" value="&lt;p style=&quot;white-space-collapse: preserve;&quot; dir=&quot;auto&quot;&gt;current_alert_zone == 1&lt;/p&gt;" style="rhombus;whiteSpace=wrap;html=1;" vertex="1" parent="WIyWlLk6GJQsqaUBKTNV-1">
          <mxGeometry x="1793" y="500" width="250" height="80" as="geometry" />
        </mxCell>
        <mxCell id="buGVn9j9YcIkH5qX3WIc-202" style="edgeStyle=orthogonalEdgeStyle;rounded=0;orthogonalLoop=1;jettySize=auto;html=1;" edge="1" parent="WIyWlLk6GJQsqaUBKTNV-1" source="buGVn9j9YcIkH5qX3WIc-59">
          <mxGeometry relative="1" as="geometry">
            <mxPoint x="1920" y="880" as="targetPoint" />
            <Array as="points">
              <mxPoint x="2370" y="540" />
              <mxPoint x="2370" y="850" />
              <mxPoint x="1920" y="850" />
            </Array>
          </mxGeometry>
        </mxCell>
        <mxCell id="buGVn9j9YcIkH5qX3WIc-59" value="&lt;p style=&quot;white-space-collapse: preserve;&quot; dir=&quot;auto&quot;&gt;Send UART: &quot;Warn:Dist120-100cm&quot;&lt;br&gt;   Sound BUZZER once (200ms)&lt;/p&gt;" style="rounded=1;whiteSpace=wrap;html=1;" vertex="1" parent="WIyWlLk6GJQsqaUBKTNV-1">
          <mxGeometry x="2130" y="510" width="210" height="60" as="geometry" />
        </mxCell>
        <mxCell id="buGVn9j9YcIkH5qX3WIc-64" value="" style="edgeStyle=orthogonalEdgeStyle;rounded=0;orthogonalLoop=1;jettySize=auto;html=1;" edge="1" parent="WIyWlLk6GJQsqaUBKTNV-1" source="buGVn9j9YcIkH5qX3WIc-61" target="buGVn9j9YcIkH5qX3WIc-63">
          <mxGeometry relative="1" as="geometry" />
        </mxCell>
        <mxCell id="buGVn9j9YcIkH5qX3WIc-100" value="YES" style="edgeLabel;html=1;align=center;verticalAlign=middle;resizable=0;points=[];" vertex="1" connectable="0" parent="buGVn9j9YcIkH5qX3WIc-64">
          <mxGeometry x="-0.1332" y="-3" relative="1" as="geometry">
            <mxPoint x="-4" y="-17" as="offset" />
          </mxGeometry>
        </mxCell>
        <mxCell id="buGVn9j9YcIkH5qX3WIc-68" value="" style="edgeStyle=orthogonalEdgeStyle;rounded=0;orthogonalLoop=1;jettySize=auto;html=1;" edge="1" parent="WIyWlLk6GJQsqaUBKTNV-1" source="buGVn9j9YcIkH5qX3WIc-61" target="buGVn9j9YcIkH5qX3WIc-66">
          <mxGeometry relative="1" as="geometry" />
        </mxCell>
        <mxCell id="buGVn9j9YcIkH5qX3WIc-102" value="NO" style="edgeLabel;html=1;align=center;verticalAlign=middle;resizable=0;points=[];" vertex="1" connectable="0" parent="buGVn9j9YcIkH5qX3WIc-68">
          <mxGeometry x="0.1603" y="-1" relative="1" as="geometry">
            <mxPoint x="19" as="offset" />
          </mxGeometry>
        </mxCell>
        <mxCell id="buGVn9j9YcIkH5qX3WIc-61" value="&lt;p style=&quot;white-space-collapse: preserve;&quot; dir=&quot;auto&quot;&gt;current_alert_zone == 2&lt;/p&gt;" style="rhombus;whiteSpace=wrap;html=1;" vertex="1" parent="WIyWlLk6GJQsqaUBKTNV-1">
          <mxGeometry x="1793" y="620" width="250" height="80" as="geometry" />
        </mxCell>
        <mxCell id="buGVn9j9YcIkH5qX3WIc-65" value="" style="edgeStyle=orthogonalEdgeStyle;rounded=0;orthogonalLoop=1;jettySize=auto;html=1;" edge="1" parent="WIyWlLk6GJQsqaUBKTNV-1" source="buGVn9j9YcIkH5qX3WIc-66" target="buGVn9j9YcIkH5qX3WIc-67">
          <mxGeometry relative="1" as="geometry" />
        </mxCell>
        <mxCell id="buGVn9j9YcIkH5qX3WIc-101" value="YES" style="edgeLabel;html=1;align=center;verticalAlign=middle;resizable=0;points=[];" vertex="1" connectable="0" parent="buGVn9j9YcIkH5qX3WIc-65">
          <mxGeometry x="-0.06" relative="1" as="geometry">
            <mxPoint y="-10" as="offset" />
          </mxGeometry>
        </mxCell>
        <mxCell id="buGVn9j9YcIkH5qX3WIc-66" value="&lt;p style=&quot;white-space-collapse: preserve;&quot; dir=&quot;auto&quot;&gt;current_alert_zone == 3&lt;/p&gt;" style="rhombus;whiteSpace=wrap;html=1;" vertex="1" parent="WIyWlLk6GJQsqaUBKTNV-1">
          <mxGeometry x="1793" y="750" width="250" height="80" as="geometry" />
        </mxCell>
        <mxCell id="buGVn9j9YcIkH5qX3WIc-200" style="edgeStyle=orthogonalEdgeStyle;rounded=0;orthogonalLoop=1;jettySize=auto;html=1;" edge="1" parent="WIyWlLk6GJQsqaUBKTNV-1" source="buGVn9j9YcIkH5qX3WIc-67">
          <mxGeometry relative="1" as="geometry">
            <mxPoint x="1920" y="880" as="targetPoint" />
            <Array as="points">
              <mxPoint x="2235" y="850" />
              <mxPoint x="1920" y="850" />
            </Array>
          </mxGeometry>
        </mxCell>
        <mxCell id="buGVn9j9YcIkH5qX3WIc-67" value="&lt;p style=&quot;white-space-collapse: preserve;&quot; dir=&quot;auto&quot;&gt;&lt;span style=&quot;background-color: transparent; color: light-dark(rgb(0, 0, 0), rgb(255, 255, 255));&quot;&gt;Send UART: &quot;Warn:Dist&amp;lt;20cm&quot;&lt;/span&gt;&lt;/p&gt;" style="rounded=1;whiteSpace=wrap;html=1;" vertex="1" parent="WIyWlLk6GJQsqaUBKTNV-1">
          <mxGeometry x="2130" y="760" width="210" height="60" as="geometry" />
        </mxCell>
        <mxCell id="buGVn9j9YcIkH5qX3WIc-178" value="" style="edgeStyle=orthogonalEdgeStyle;rounded=0;orthogonalLoop=1;jettySize=auto;html=1;" edge="1" parent="WIyWlLk6GJQsqaUBKTNV-1" source="buGVn9j9YcIkH5qX3WIc-72" target="buGVn9j9YcIkH5qX3WIc-74">
          <mxGeometry relative="1" as="geometry" />
        </mxCell>
        <mxCell id="buGVn9j9YcIkH5qX3WIc-72" value="&lt;p style=&quot;white-space-collapse: preserve;&quot; dir=&quot;auto&quot;&gt;current_alert_zone == 3 &lt;br/&gt;and &lt;span style=&quot;background-color: transparent; color: light-dark(rgb(0, 0, 0), rgb(255, 255, 255));&quot;&gt;alert_triggered&lt;/span&gt;&lt;/p&gt;" style="rhombus;whiteSpace=wrap;html=1;" vertex="1" parent="WIyWlLk6GJQsqaUBKTNV-1">
          <mxGeometry x="2500" y="867.46" width="250" height="80" as="geometry" />
        </mxCell>
        <mxCell id="buGVn9j9YcIkH5qX3WIc-179" style="edgeStyle=orthogonalEdgeStyle;rounded=0;orthogonalLoop=1;jettySize=auto;html=1;entryX=0.5;entryY=1;entryDx=0;entryDy=0;" edge="1" parent="WIyWlLk6GJQsqaUBKTNV-1" source="buGVn9j9YcIkH5qX3WIc-74" target="buGVn9j9YcIkH5qX3WIc-76">
          <mxGeometry relative="1" as="geometry" />
        </mxCell>
        <mxCell id="buGVn9j9YcIkH5qX3WIc-74" value="&lt;p style=&quot;white-space-collapse: preserve;&quot; dir=&quot;auto&quot;&gt;Sound BUZZER continuously (100ms on/off)&lt;/p&gt;" style="rounded=1;whiteSpace=wrap;html=1;" vertex="1" parent="WIyWlLk6GJQsqaUBKTNV-1">
          <mxGeometry x="2545" y="763" width="160" height="60" as="geometry" />
        </mxCell>
        <mxCell id="buGVn9j9YcIkH5qX3WIc-82" value="" style="edgeStyle=orthogonalEdgeStyle;rounded=0;orthogonalLoop=1;jettySize=auto;html=1;" edge="1" parent="WIyWlLk6GJQsqaUBKTNV-1" source="buGVn9j9YcIkH5qX3WIc-76" target="buGVn9j9YcIkH5qX3WIc-81">
          <mxGeometry relative="1" as="geometry" />
        </mxCell>
        <mxCell id="buGVn9j9YcIkH5qX3WIc-76" value="&lt;p style=&quot;white-space-collapse: preserve;&quot; dir=&quot;auto&quot;&gt;Update last_alert_zone = current_alert_zone&lt;/p&gt;" style="whiteSpace=wrap;html=1;rounded=1;" vertex="1" parent="WIyWlLk6GJQsqaUBKTNV-1">
          <mxGeometry x="2545" y="667.96" width="160" height="60" as="geometry" />
        </mxCell>
        <mxCell id="buGVn9j9YcIkH5qX3WIc-204" value="" style="edgeStyle=orthogonalEdgeStyle;rounded=0;orthogonalLoop=1;jettySize=auto;html=1;" edge="1" parent="WIyWlLk6GJQsqaUBKTNV-1" source="buGVn9j9YcIkH5qX3WIc-79" target="buGVn9j9YcIkH5qX3WIc-203">
          <mxGeometry relative="1" as="geometry" />
        </mxCell>
        <mxCell id="buGVn9j9YcIkH5qX3WIc-79" value="&lt;p style=&quot;white-space-collapse: preserve;&quot; dir=&quot;auto&quot;&gt;Reset distance_alert_counter, current_alert_zone, last_alert_zone, alert_triggered&lt;br&gt;Turn off BUZZER&lt;/p&gt;" style="rounded=1;whiteSpace=wrap;html=1;" vertex="1" parent="WIyWlLk6GJQsqaUBKTNV-1">
          <mxGeometry x="1395" y="877.96" width="280" height="60" as="geometry" />
        </mxCell>
        <mxCell id="buGVn9j9YcIkH5qX3WIc-84" value="" style="edgeStyle=orthogonalEdgeStyle;rounded=0;orthogonalLoop=1;jettySize=auto;html=1;" edge="1" parent="WIyWlLk6GJQsqaUBKTNV-1" source="buGVn9j9YcIkH5qX3WIc-81" target="buGVn9j9YcIkH5qX3WIc-83">
          <mxGeometry relative="1" as="geometry" />
        </mxCell>
        <mxCell id="buGVn9j9YcIkH5qX3WIc-106" value="YES" style="edgeLabel;html=1;align=center;verticalAlign=middle;resizable=0;points=[];" vertex="1" connectable="0" parent="buGVn9j9YcIkH5qX3WIc-84">
          <mxGeometry x="-0.3" y="2" relative="1" as="geometry">
            <mxPoint y="-8" as="offset" />
          </mxGeometry>
        </mxCell>
        <mxCell id="buGVn9j9YcIkH5qX3WIc-88" value="" style="edgeStyle=orthogonalEdgeStyle;rounded=0;orthogonalLoop=1;jettySize=auto;html=1;" edge="1" parent="WIyWlLk6GJQsqaUBKTNV-1" source="buGVn9j9YcIkH5qX3WIc-81" target="buGVn9j9YcIkH5qX3WIc-87">
          <mxGeometry relative="1" as="geometry" />
        </mxCell>
        <mxCell id="buGVn9j9YcIkH5qX3WIc-107" value="NO" style="edgeLabel;html=1;align=center;verticalAlign=middle;resizable=0;points=[];" vertex="1" connectable="0" parent="buGVn9j9YcIkH5qX3WIc-88">
          <mxGeometry x="-0.4163" y="-2" relative="1" as="geometry">
            <mxPoint x="8" as="offset" />
          </mxGeometry>
        </mxCell>
        <mxCell id="buGVn9j9YcIkH5qX3WIc-81" value="&lt;p style=&quot;white-space-collapse: preserve;&quot; dir=&quot;auto&quot;&gt;mq3_digital_state == 0&lt;/p&gt;" style="rhombus;whiteSpace=wrap;html=1;" vertex="1" parent="WIyWlLk6GJQsqaUBKTNV-1">
          <mxGeometry x="2545" y="540" width="160" height="80" as="geometry" />
        </mxCell>
        <mxCell id="buGVn9j9YcIkH5qX3WIc-83" value="&lt;p style=&quot;white-space-collapse: preserve;&quot; dir=&quot;auto&quot;&gt;Turn on LED_SIGNAL, BUZZER (100ms), then off&lt;/p&gt;" style="rounded=1;whiteSpace=wrap;html=1;" vertex="1" parent="WIyWlLk6GJQsqaUBKTNV-1">
          <mxGeometry x="2800" y="550" width="160" height="60" as="geometry" />
        </mxCell>
        <mxCell id="buGVn9j9YcIkH5qX3WIc-90" value="" style="edgeStyle=orthogonalEdgeStyle;rounded=0;orthogonalLoop=1;jettySize=auto;html=1;" edge="1" parent="WIyWlLk6GJQsqaUBKTNV-1" source="buGVn9j9YcIkH5qX3WIc-87" target="buGVn9j9YcIkH5qX3WIc-89">
          <mxGeometry relative="1" as="geometry" />
        </mxCell>
        <mxCell id="buGVn9j9YcIkH5qX3WIc-108" value="YES" style="edgeLabel;html=1;align=center;verticalAlign=middle;resizable=0;points=[];" vertex="1" connectable="0" parent="buGVn9j9YcIkH5qX3WIc-90">
          <mxGeometry x="-0.2479" y="2" relative="1" as="geometry">
            <mxPoint y="-13" as="offset" />
          </mxGeometry>
        </mxCell>
        <mxCell id="buGVn9j9YcIkH5qX3WIc-92" value="" style="edgeStyle=orthogonalEdgeStyle;rounded=0;orthogonalLoop=1;jettySize=auto;html=1;" edge="1" parent="WIyWlLk6GJQsqaUBKTNV-1" source="buGVn9j9YcIkH5qX3WIc-87" target="buGVn9j9YcIkH5qX3WIc-91">
          <mxGeometry relative="1" as="geometry" />
        </mxCell>
        <mxCell id="buGVn9j9YcIkH5qX3WIc-109" value="NO" style="edgeLabel;html=1;align=center;verticalAlign=middle;resizable=0;points=[];" vertex="1" connectable="0" parent="buGVn9j9YcIkH5qX3WIc-92">
          <mxGeometry x="0.1046" y="2" relative="1" as="geometry">
            <mxPoint x="12" as="offset" />
          </mxGeometry>
        </mxCell>
        <mxCell id="buGVn9j9YcIkH5qX3WIc-87" value="&lt;p style=&quot;white-space-collapse: preserve;&quot; dir=&quot;auto&quot;&gt;&lt;span style=&quot;white-space-collapse: collapse;&quot;&gt;Motor running in High speed mode&lt;/span&gt;&lt;/p&gt;&lt;p style=&quot;white-space-collapse: preserve;&quot; dir=&quot;auto&quot;&gt;&lt;span style=&quot;white-space-collapse: collapse;&quot;&gt;and&amp;nbsp;&lt;/span&gt;&lt;span style=&quot;background-color: transparent; color: light-dark(rgb(0, 0, 0), rgb(255, 255, 255));&quot;&gt;2 &amp;lt; Distance &amp;lt; 20&lt;/span&gt;&lt;/p&gt;" style="rhombus;whiteSpace=wrap;html=1;" vertex="1" parent="WIyWlLk6GJQsqaUBKTNV-1">
          <mxGeometry x="2462.5" y="390" width="325" height="80" as="geometry" />
        </mxCell>
        <mxCell id="buGVn9j9YcIkH5qX3WIc-89" value="&lt;p style=&quot;white-space-collapse: preserve;&quot; dir=&quot;auto&quot;&gt;Handled in alert logic&lt;/p&gt;" style="rounded=1;whiteSpace=wrap;html=1;" vertex="1" parent="WIyWlLk6GJQsqaUBKTNV-1">
          <mxGeometry x="2830" y="400" width="160" height="60" as="geometry" />
        </mxCell>
        <mxCell id="buGVn9j9YcIkH5qX3WIc-111" value="" style="edgeStyle=orthogonalEdgeStyle;rounded=0;orthogonalLoop=1;jettySize=auto;html=1;" edge="1" parent="WIyWlLk6GJQsqaUBKTNV-1" source="buGVn9j9YcIkH5qX3WIc-91" target="buGVn9j9YcIkH5qX3WIc-110">
          <mxGeometry relative="1" as="geometry" />
        </mxCell>
        <mxCell id="buGVn9j9YcIkH5qX3WIc-91" value="&lt;p style=&quot;white-space: pre-wrap;&quot; dir=&quot;auto&quot;&gt;Turn off LED_SIGNAL&lt;/p&gt;" style="rounded=1;whiteSpace=wrap;html=1;" vertex="1" parent="WIyWlLk6GJQsqaUBKTNV-1">
          <mxGeometry x="2550" y="290" width="150" height="60" as="geometry" />
        </mxCell>
        <mxCell id="buGVn9j9YcIkH5qX3WIc-113" value="" style="edgeStyle=orthogonalEdgeStyle;rounded=0;orthogonalLoop=1;jettySize=auto;html=1;" edge="1" parent="WIyWlLk6GJQsqaUBKTNV-1" source="buGVn9j9YcIkH5qX3WIc-110" target="buGVn9j9YcIkH5qX3WIc-112">
          <mxGeometry relative="1" as="geometry" />
        </mxCell>
        <mxCell id="buGVn9j9YcIkH5qX3WIc-114" value="YES" style="edgeLabel;html=1;align=center;verticalAlign=middle;resizable=0;points=[];" vertex="1" connectable="0" parent="buGVn9j9YcIkH5qX3WIc-113">
          <mxGeometry x="-0.2346" y="-1" relative="1" as="geometry">
            <mxPoint x="16" as="offset" />
          </mxGeometry>
        </mxCell>
        <mxCell id="buGVn9j9YcIkH5qX3WIc-116" value="" style="edgeStyle=orthogonalEdgeStyle;rounded=0;orthogonalLoop=1;jettySize=auto;html=1;" edge="1" parent="WIyWlLk6GJQsqaUBKTNV-1" source="buGVn9j9YcIkH5qX3WIc-110" target="buGVn9j9YcIkH5qX3WIc-115">
          <mxGeometry relative="1" as="geometry" />
        </mxCell>
        <mxCell id="buGVn9j9YcIkH5qX3WIc-117" value="NO" style="edgeLabel;html=1;align=center;verticalAlign=middle;resizable=0;points=[];" vertex="1" connectable="0" parent="buGVn9j9YcIkH5qX3WIc-116">
          <mxGeometry x="-0.1324" y="1" relative="1" as="geometry">
            <mxPoint as="offset" />
          </mxGeometry>
        </mxCell>
        <mxCell id="buGVn9j9YcIkH5qX3WIc-110" value="Motor running in High speed mode" style="rhombus;whiteSpace=wrap;html=1;" vertex="1" parent="WIyWlLk6GJQsqaUBKTNV-1">
          <mxGeometry x="2787.5" y="280" width="230" height="80" as="geometry" />
        </mxCell>
        <mxCell id="buGVn9j9YcIkH5qX3WIc-112" value="&lt;p style=&quot;white-space-collapse: preserve;&quot; dir=&quot;auto&quot;&gt;Turn on LED_HIGH, Turn off LED_LOW&lt;/p&gt;" style="rounded=1;whiteSpace=wrap;html=1;" vertex="1" parent="WIyWlLk6GJQsqaUBKTNV-1">
          <mxGeometry x="2842.5" y="180" width="120" height="60" as="geometry" />
        </mxCell>
        <mxCell id="buGVn9j9YcIkH5qX3WIc-119" value="" style="edgeStyle=orthogonalEdgeStyle;rounded=0;orthogonalLoop=1;jettySize=auto;html=1;" edge="1" parent="WIyWlLk6GJQsqaUBKTNV-1" source="buGVn9j9YcIkH5qX3WIc-115" target="buGVn9j9YcIkH5qX3WIc-118">
          <mxGeometry relative="1" as="geometry" />
        </mxCell>
        <mxCell id="buGVn9j9YcIkH5qX3WIc-122" value="YES" style="edgeLabel;html=1;align=center;verticalAlign=middle;resizable=0;points=[];" vertex="1" connectable="0" parent="buGVn9j9YcIkH5qX3WIc-119">
          <mxGeometry x="-0.4686" relative="1" as="geometry">
            <mxPoint x="15" y="8" as="offset" />
          </mxGeometry>
        </mxCell>
        <mxCell id="buGVn9j9YcIkH5qX3WIc-121" value="" style="edgeStyle=orthogonalEdgeStyle;rounded=0;orthogonalLoop=1;jettySize=auto;html=1;" edge="1" parent="WIyWlLk6GJQsqaUBKTNV-1" source="buGVn9j9YcIkH5qX3WIc-115" target="buGVn9j9YcIkH5qX3WIc-120">
          <mxGeometry relative="1" as="geometry" />
        </mxCell>
        <mxCell id="buGVn9j9YcIkH5qX3WIc-115" value="Motor running in Low speed mode" style="rhombus;whiteSpace=wrap;html=1;" vertex="1" parent="WIyWlLk6GJQsqaUBKTNV-1">
          <mxGeometry x="3062.5" y="280" width="230" height="80" as="geometry" />
        </mxCell>
        <mxCell id="buGVn9j9YcIkH5qX3WIc-118" value="&lt;p style=&quot;white-space-collapse: preserve;&quot; dir=&quot;auto&quot;&gt;Turn off LED_HIGH, turn on LED_LOW&lt;/p&gt;" style="rounded=1;whiteSpace=wrap;html=1;" vertex="1" parent="WIyWlLk6GJQsqaUBKTNV-1">
          <mxGeometry x="3117.5" y="170" width="120" height="60" as="geometry" />
        </mxCell>
        <mxCell id="buGVn9j9YcIkH5qX3WIc-124" value="" style="edgeStyle=orthogonalEdgeStyle;rounded=0;orthogonalLoop=1;jettySize=auto;html=1;" edge="1" parent="WIyWlLk6GJQsqaUBKTNV-1" source="buGVn9j9YcIkH5qX3WIc-120" target="buGVn9j9YcIkH5qX3WIc-123">
          <mxGeometry relative="1" as="geometry" />
        </mxCell>
        <mxCell id="buGVn9j9YcIkH5qX3WIc-120" value="&lt;p style=&quot;white-space-collapse: preserve;&quot; dir=&quot;auto&quot;&gt;Turn off LED_HIGH, LED_LOW&lt;/p&gt;" style="rounded=1;whiteSpace=wrap;html=1;" vertex="1" parent="WIyWlLk6GJQsqaUBKTNV-1">
          <mxGeometry x="3117.5" y="410" width="120" height="60" as="geometry" />
        </mxCell>
        <mxCell id="buGVn9j9YcIkH5qX3WIc-126" value="" style="edgeStyle=orthogonalEdgeStyle;rounded=0;orthogonalLoop=1;jettySize=auto;html=1;" edge="1" parent="WIyWlLk6GJQsqaUBKTNV-1" source="buGVn9j9YcIkH5qX3WIc-123" target="buGVn9j9YcIkH5qX3WIc-125">
          <mxGeometry relative="1" as="geometry" />
        </mxCell>
        <mxCell id="buGVn9j9YcIkH5qX3WIc-127" value="YES" style="edgeLabel;html=1;align=center;verticalAlign=middle;resizable=0;points=[];" vertex="1" connectable="0" parent="buGVn9j9YcIkH5qX3WIc-126">
          <mxGeometry x="-0.138" relative="1" as="geometry">
            <mxPoint x="20" as="offset" />
          </mxGeometry>
        </mxCell>
        <mxCell id="buGVn9j9YcIkH5qX3WIc-185" style="edgeStyle=orthogonalEdgeStyle;rounded=0;orthogonalLoop=1;jettySize=auto;html=1;entryX=0;entryY=0.5;entryDx=0;entryDy=0;" edge="1" parent="WIyWlLk6GJQsqaUBKTNV-1" source="buGVn9j9YcIkH5qX3WIc-123" target="buGVn9j9YcIkH5qX3WIc-128">
          <mxGeometry relative="1" as="geometry">
            <Array as="points">
              <mxPoint x="3022.5" y="570.0000000000002" />
              <mxPoint x="3022.5" y="793" />
            </Array>
          </mxGeometry>
        </mxCell>
        <mxCell id="buGVn9j9YcIkH5qX3WIc-186" value="NO" style="edgeLabel;html=1;align=center;verticalAlign=middle;resizable=0;points=[];" vertex="1" connectable="0" parent="buGVn9j9YcIkH5qX3WIc-185">
          <mxGeometry x="-0.7837" y="3" relative="1" as="geometry">
            <mxPoint x="8" y="-15" as="offset" />
          </mxGeometry>
        </mxCell>
        <mxCell id="buGVn9j9YcIkH5qX3WIc-123" value="&lt;p style=&quot;white-space-collapse: preserve;&quot; dir=&quot;auto&quot;&gt;pulse_value &amp;gt; 700&lt;/p&gt;" style="rhombus;whiteSpace=wrap;html=1;" vertex="1" parent="WIyWlLk6GJQsqaUBKTNV-1">
          <mxGeometry x="3117.5" y="530" width="120" height="80" as="geometry" />
        </mxCell>
        <mxCell id="buGVn9j9YcIkH5qX3WIc-184" style="edgeStyle=orthogonalEdgeStyle;rounded=0;orthogonalLoop=1;jettySize=auto;html=1;" edge="1" parent="WIyWlLk6GJQsqaUBKTNV-1" source="buGVn9j9YcIkH5qX3WIc-125">
          <mxGeometry relative="1" as="geometry">
            <mxPoint x="3177.5" y="500.0000000000002" as="targetPoint" />
            <Array as="points">
              <mxPoint x="3332.5" y="680" />
              <mxPoint x="3332.5" y="500" />
            </Array>
          </mxGeometry>
        </mxCell>
        <mxCell id="buGVn9j9YcIkH5qX3WIc-125" value="&lt;p style=&quot;white-space-collapse: preserve;&quot; dir=&quot;auto&quot;&gt;Send UART: &quot;Warn:Pulse!&quot;&lt;/p&gt;" style="rounded=1;whiteSpace=wrap;html=1;" vertex="1" parent="WIyWlLk6GJQsqaUBKTNV-1">
          <mxGeometry x="3117.5" y="650" width="120" height="60" as="geometry" />
        </mxCell>
        <mxCell id="buGVn9j9YcIkH5qX3WIc-192" value="" style="edgeStyle=orthogonalEdgeStyle;rounded=0;orthogonalLoop=1;jettySize=auto;html=1;" edge="1" parent="WIyWlLk6GJQsqaUBKTNV-1" source="buGVn9j9YcIkH5qX3WIc-128" target="buGVn9j9YcIkH5qX3WIc-191">
          <mxGeometry relative="1" as="geometry" />
        </mxCell>
        <mxCell id="buGVn9j9YcIkH5qX3WIc-128" value="&lt;p style=&quot;white-space-collapse: preserve;&quot; dir=&quot;auto&quot;&gt;Increment loop_counter&lt;/p&gt;" style="rounded=1;whiteSpace=wrap;html=1;" vertex="1" parent="WIyWlLk6GJQsqaUBKTNV-1">
          <mxGeometry x="3117.5" y="763" width="120" height="60" as="geometry" />
        </mxCell>
        <mxCell id="buGVn9j9YcIkH5qX3WIc-153" value="END" style="shape=hexagon;perimeter=hexagonPerimeter2;whiteSpace=wrap;html=1;fixedSize=1;" vertex="1" parent="WIyWlLk6GJQsqaUBKTNV-1">
          <mxGeometry x="407.5" y="315" width="120" height="80" as="geometry" />
        </mxCell>
        <mxCell id="buGVn9j9YcIkH5qX3WIc-155" value="&lt;font style=&quot;font-size: 18px;&quot;&gt;1&lt;/font&gt;" style="ellipse;whiteSpace=wrap;html=1;rounded=1;" vertex="1" parent="WIyWlLk6GJQsqaUBKTNV-1">
          <mxGeometry x="436" y="960" width="80" height="80" as="geometry" />
        </mxCell>
        <mxCell id="buGVn9j9YcIkH5qX3WIc-158" value="" style="edgeStyle=orthogonalEdgeStyle;rounded=0;orthogonalLoop=1;jettySize=auto;html=1;" edge="1" parent="WIyWlLk6GJQsqaUBKTNV-1" source="buGVn9j9YcIkH5qX3WIc-157" target="knblfGrgIA1s73M3ITM0-24">
          <mxGeometry relative="1" as="geometry" />
        </mxCell>
        <mxCell id="buGVn9j9YcIkH5qX3WIc-157" value="&lt;font style=&quot;font-size: 18px;&quot;&gt;1&lt;/font&gt;" style="ellipse;whiteSpace=wrap;html=1;aspect=fixed;" vertex="1" parent="WIyWlLk6GJQsqaUBKTNV-1">
          <mxGeometry x="630" y="310" width="80" height="80" as="geometry" />
        </mxCell>
        <mxCell id="buGVn9j9YcIkH5qX3WIc-177" style="edgeStyle=orthogonalEdgeStyle;rounded=0;orthogonalLoop=1;jettySize=auto;html=1;entryX=0;entryY=0.5;entryDx=0;entryDy=0;" edge="1" parent="WIyWlLk6GJQsqaUBKTNV-1" source="buGVn9j9YcIkH5qX3WIc-69" target="buGVn9j9YcIkH5qX3WIc-72">
          <mxGeometry relative="1" as="geometry" />
        </mxCell>
        <mxCell id="buGVn9j9YcIkH5qX3WIc-69" value="&lt;p style=&quot;white-space-collapse: preserve;&quot; dir=&quot;auto&quot;&gt;alert_triggered = 1&lt;/p&gt;" style="rounded=1;whiteSpace=wrap;html=1;" vertex="1" parent="WIyWlLk6GJQsqaUBKTNV-1">
          <mxGeometry x="1838" y="882.96" width="160" height="50" as="geometry" />
        </mxCell>
        <mxCell id="buGVn9j9YcIkH5qX3WIc-166" value="&lt;font style=&quot;font-size: 18px;&quot;&gt;2&lt;/font&gt;" style="ellipse;whiteSpace=wrap;html=1;rounded=1;" vertex="1" parent="WIyWlLk6GJQsqaUBKTNV-1">
          <mxGeometry x="1410" y="260" width="80" height="80" as="geometry" />
        </mxCell>
        <mxCell id="buGVn9j9YcIkH5qX3WIc-168" value="&lt;font style=&quot;font-size: 18px;&quot;&gt;2&lt;/font&gt;" style="ellipse;whiteSpace=wrap;html=1;rounded=1;" vertex="1" parent="WIyWlLk6GJQsqaUBKTNV-1">
          <mxGeometry x="930" y="230.00000000000006" width="80" height="80" as="geometry" />
        </mxCell>
        <mxCell id="buGVn9j9YcIkH5qX3WIc-171" value="" style="edgeStyle=orthogonalEdgeStyle;rounded=0;orthogonalLoop=1;jettySize=auto;html=1;" edge="1" parent="WIyWlLk6GJQsqaUBKTNV-1" source="buGVn9j9YcIkH5qX3WIc-170" target="buGVn9j9YcIkH5qX3WIc-55">
          <mxGeometry relative="1" as="geometry" />
        </mxCell>
        <mxCell id="buGVn9j9YcIkH5qX3WIc-170" value="&lt;font style=&quot;font-size: 18px;&quot;&gt;2&lt;/font&gt;" style="ellipse;whiteSpace=wrap;html=1;rounded=1;" vertex="1" parent="WIyWlLk6GJQsqaUBKTNV-1">
          <mxGeometry x="1878" y="260" width="80" height="80" as="geometry" />
        </mxCell>
        <mxCell id="buGVn9j9YcIkH5qX3WIc-201" style="edgeStyle=orthogonalEdgeStyle;rounded=0;orthogonalLoop=1;jettySize=auto;html=1;" edge="1" parent="WIyWlLk6GJQsqaUBKTNV-1" source="buGVn9j9YcIkH5qX3WIc-63">
          <mxGeometry relative="1" as="geometry">
            <mxPoint x="1920" y="880" as="targetPoint" />
            <Array as="points">
              <mxPoint x="2370" y="660" />
              <mxPoint x="2370" y="850" />
              <mxPoint x="1920" y="850" />
            </Array>
          </mxGeometry>
        </mxCell>
        <mxCell id="buGVn9j9YcIkH5qX3WIc-63" value="&lt;p style=&quot;white-space-collapse: preserve;&quot; dir=&quot;auto&quot;&gt;:Send UART: &quot;Warn:Dist100-20cm&quot;&lt;br/&gt;Sound BUZZER 3 times (200ms each)&lt;/p&gt;" style="rounded=1;whiteSpace=wrap;html=1;" vertex="1" parent="WIyWlLk6GJQsqaUBKTNV-1">
          <mxGeometry x="2130" y="630" width="210" height="60" as="geometry" />
        </mxCell>
        <mxCell id="buGVn9j9YcIkH5qX3WIc-190" style="edgeStyle=orthogonalEdgeStyle;rounded=0;orthogonalLoop=1;jettySize=auto;html=1;" edge="1" parent="WIyWlLk6GJQsqaUBKTNV-1" source="buGVn9j9YcIkH5qX3WIc-187">
          <mxGeometry relative="1" as="geometry">
            <mxPoint x="162.5" y="360" as="targetPoint" />
          </mxGeometry>
        </mxCell>
        <mxCell id="buGVn9j9YcIkH5qX3WIc-187" value="&lt;font style=&quot;font-size: 18px;&quot;&gt;3&lt;/font&gt;" style="ellipse;whiteSpace=wrap;html=1;aspect=fixed;" vertex="1" parent="WIyWlLk6GJQsqaUBKTNV-1">
          <mxGeometry x="122.5" y="210" width="80" height="80" as="geometry" />
        </mxCell>
        <mxCell id="buGVn9j9YcIkH5qX3WIc-191" value="&lt;font style=&quot;font-size: 18px;&quot;&gt;3&lt;/font&gt;" style="ellipse;whiteSpace=wrap;html=1;rounded=1;" vertex="1" parent="WIyWlLk6GJQsqaUBKTNV-1">
          <mxGeometry x="3137.5" y="852.96" width="80" height="80" as="geometry" />
        </mxCell>
        <mxCell id="buGVn9j9YcIkH5qX3WIc-194" style="edgeStyle=orthogonalEdgeStyle;rounded=0;orthogonalLoop=1;jettySize=auto;html=1;" edge="1" parent="WIyWlLk6GJQsqaUBKTNV-1" source="buGVn9j9YcIkH5qX3WIc-193">
          <mxGeometry relative="1" as="geometry">
            <mxPoint x="2620" y="627.9599999999998" as="targetPoint" />
          </mxGeometry>
        </mxCell>
        <mxCell id="buGVn9j9YcIkH5qX3WIc-193" value="&lt;font style=&quot;font-size: 18px;&quot;&gt;4&lt;/font&gt;" style="ellipse;whiteSpace=wrap;html=1;rounded=1;" vertex="1" parent="WIyWlLk6GJQsqaUBKTNV-1">
          <mxGeometry x="2440" y="587.96" width="80" height="80" as="geometry" />
        </mxCell>
        <mxCell id="buGVn9j9YcIkH5qX3WIc-203" value="&lt;font style=&quot;font-size: 18px;&quot;&gt;4&lt;/font&gt;" style="ellipse;whiteSpace=wrap;html=1;rounded=1;" vertex="1" parent="WIyWlLk6GJQsqaUBKTNV-1">
          <mxGeometry x="1495" y="980" width="80" height="80" as="geometry" />
        </mxCell>
      </root>
    </mxGraphModel>
  </diagram>
</mxfile>
